<svg width="48" height="48" fill="none" xmlns="http://www.w3.org/2000/svg"><g clip-path="url(#a)" fill="#fff"><path d="M24.001 4.322c6.412 0 7.172.028 9.694.14 2.343.104 3.61.497 4.453.825 1.115.432 1.922.957 2.756 1.791.844.844 1.36 1.64 1.79 2.756.329.844.723 2.12.826 4.454.112 2.53.14 3.29.14 9.693 0 6.413-.028 7.172-.14 9.694-.103 2.344-.497 3.61-.825 4.453-.431 1.116-.956 1.922-1.79 2.756-.845.844-1.642 1.36-2.757 1.791-.844.328-2.119.722-4.453.825-2.532.112-3.29.14-9.694.14-6.413 0-7.172-.028-9.694-.14-2.344-.103-3.61-.497-4.453-.825-1.116-.431-1.922-.956-2.756-1.79-.844-.844-1.36-1.641-1.79-2.757-.329-.844-.723-2.119-.826-4.453-.112-2.531-.14-3.29-.14-9.694 0-6.412.028-7.172.14-9.694.103-2.343.497-3.609.825-4.453.431-1.115.956-1.921 1.79-2.756.845-.844 1.641-1.36 2.757-1.79.844-.329 2.119-.722 4.453-.825 2.522-.113 3.281-.141 9.694-.141zm0-4.322c-6.516 0-7.331.028-9.89.14-2.55.113-4.304.526-5.823 1.116-1.584.619-2.925 1.435-4.256 2.775-1.34 1.332-2.156 2.672-2.775 4.247C.667 9.806.254 11.55.142 14.1.029 16.669 0 17.484 0 24s.028 7.331.14 9.89c.113 2.55.526 4.304 1.116 5.822.619 1.585 1.435 2.925 2.775 4.257a11.732 11.732 0 004.247 2.765c1.528.591 3.272 1.003 5.822 1.116 2.56.112 3.375.14 9.89.14 6.516 0 7.332-.028 9.891-.14 2.55-.113 4.303-.525 5.822-1.116a11.733 11.733 0 004.247-2.765 11.733 11.733 0 002.766-4.247c.59-1.528 1.003-3.272 1.115-5.822.113-2.56.14-3.375.14-9.89 0-6.516-.027-7.332-.14-9.891-.112-2.55-.525-4.303-1.115-5.822-.591-1.594-1.407-2.935-2.747-4.266a11.73 11.73 0 00-4.247-2.765C38.195.675 36.45.262 33.9.15 31.332.028 30.517 0 24.001 0z"/><path d="M24.001 11.672c-6.806 0-12.328 5.522-12.328 12.328 0 6.806 5.522 12.328 12.328 12.328 6.806 0 12.328-5.522 12.328-12.328 0-6.806-5.522-12.328-12.328-12.328zm0 20.325a7.998 7.998 0 010-15.994 7.998 7.998 0 010 15.994zM39.695 11.184a2.879 2.879 0 11-2.878-2.878 2.885 2.885 0 012.878 2.878z"/></g><defs><clipPath id="a"><path fill="#fff" transform="translate(.001)" d="M0 0H48V48H0z"/></clipPath></defs></svg>