<?xml version="1.0" encoding="UTF-8"?>
<svg id="Calque_1" data-name="Calque 1" xmlns="http://www.w3.org/2000/svg" viewBox="0 0 1928.06 890.62">
  <defs>
    <style>
      .cls-1 {
        fill: none;
        stroke: #c1272d;
        stroke-miterlimit: 10;
        stroke-width: 9px;
      }
    </style>
  </defs>
  <path class="cls-1" d="M4.27,292.96s125.28,376.06,132.32,328.17S30.96,43.66,92.93,136.62s250.7,626.76,250.7,470.42S140.82-43.66,253.49,114.08s378.87,839.44,333.8,601.41S326.73-167.61,438,47.88s312.68,963.25,288.73,717.54S516.87-35.21,597.16,94.36s235.21,819.72,240.85,639.44S619.69-77.47,738,94.36s261.97,853.52,264.79,669.01S816.87-9.86,901.38,132.39s216.9,842.25,215.49,629.58-135.21-709.86-54.93-561.97,330.99,826.76,269.01,538.03-228.17-690.14-105.63-528.17,430.99,907.68,343.66,604.54S1305.61,19.72,1402.79,156.34s253.52,771.83,239.44,571.83S1416.87,15.49,1515.47,187.32s233.8,661.97,205.63,456.34-129.58-618.31-22.54-370.42,163.38,323.94,114.08,126.76c-49.3-197.18,5.63-108.23,57.75,7.86s47.89,52.7,32.39-16.31-.5-35.21,10.31-9.86l10.81,25.35"/>
</svg>