<svg width="48" height="48" fill="none" xmlns="http://www.w3.org/2000/svg"><g clip-path="url(#a)"><path d="M44.448 0H3.545C1.585 0 0 1.547 0 3.46V44.53C.001 46.444 1.585 48 3.545 48h40.903C46.408 48 48 46.444 48 44.54V3.46c0-1.913-1.594-3.46-3.553-3.46zM14.242 40.903H7.117V17.991h7.125v22.912zM10.679 14.87a4.127 4.127 0 01-4.134-4.125 4.127 4.127 0 014.134-4.125 4.125 4.125 0 014.125 4.125 4.131 4.131 0 01-4.125 4.125zm30.225 26.034h-7.116V29.766c0-2.653-.046-6.075-3.703-6.075-3.703 0-4.265 2.896-4.265 5.887v11.325h-7.107V17.991h6.825v3.13h.094c.947-1.8 3.272-3.702 6.732-3.702 7.209 0 8.54 4.744 8.54 10.912v12.572z" fill="#fff"/></g><defs><clipPath id="a"><path fill="#fff" transform="translate(.001)" d="M0 0H48V48H0z"/></clipPath></defs></svg>